#!OML:ASF F:\VICON\USERDATA\INSTALL\rory3\rory3.ASF
:FULLY-SPECIFIED
:DEGREES
188
root -0.345987 17.3008 5.47395 -0.682275 -80.9958 16.5557
lowerback -7.87007 1.50987 7.03762
upperback -10.3935 1.32873 0.476322
thorax -6.39476 -0.0159505 -3.37364
lowerneck -4.87792 16.6844 10.3977
upperneck 17.8954 21.1764 2.22952
head 7.17324 11.003 0.91286
rclavicle -1.88845e-014 9.54166e-015
rhumerus 10.8495 -21.9409 11.8121
rradius 114.845
rwrist -57.4247
rhand -5.57828 -46.2387
rfingers 7.12502
rthumb 20.2377 -75.2044
lclavicle -1.88845e-014 9.54166e-015
lhumerus 31.8731 33.5546 -6.1997
lradius 32.9345
lwrist 35.814
lhand -19.9207 -15.9749
lfingers 7.12502
lthumb 6.41641 13.9079
rfemur -14.8153 1.3704 -5.50504
rtibia 31.809
rfoot -2.06178 -28.9222
rtoes 1.59298
lfemur -20.3978 2.5115 -33.6811
ltibia 20.8286
lfoot -17.0614 5.88643
ltoes 23.525
189
root -0.343709 17.2955 5.4694 -0.641091 -81.0034 16.3703
lowerback -7.772 1.49561 7.03172
upperback -10.3393 1.32061 0.4346
thorax -6.39047 -0.0171188 -3.41635
lowerneck -5.04453 16.7073 10.7571
upperneck 18.3796 21.1675 2.10773
head 7.41685 11.0093 0.884438
rclavicle 3.37934e-015 2.22639e-014
rhumerus 10.8852 -21.8187 11.5352
rradius 114.856
rwrist -57.3385
rhand -5.28151 -45.7866
rfingers 7.12502
rthumb 20.5229 -74.7218
lclavicle 3.37934e-015 2.22639e-014
lhumerus 31.9454 33.5833 -6.2089
lradius 33.1409
lwrist 35.7302
lhand -19.7317 -15.9767
lfingers 7.12502
lthumb 6.59883 13.9005
rfemur -14.8429 1.35084 -5.39488
rtibia 32.1148
rfoot -0.879404 -28.5034
rtoes -1.21146
lfemur -20.3796 2.43143 -33.6202
ltibia 21.0477
lfoot -17.1252 6.07597
ltoes 23.2858
190
root -0.34223 17.2883 5.46465 -1.44169 -81.0326 17.0747
lowerback -7.74042 1.48288 6.85939
upperback -10.2721 1.31143 0.316697
thorax -6.33286 -0.00781165 -3.44577
lowerneck -5.14226 16.7196 11.0775
upperneck 18.6004 21.1266 2.12617
head 7.54081 11.0088 0.874588
rclavicle 1.45113e-014 1.03368e-014
rhumerus 10.851 -21.7351 11.2814
rradius 114.734
rwrist -57.461
rhand -5.29228 -45.3139
rfingers 7.12502
rthumb 20.5126 -74.2503
lclavicle 1.45113e-014 1.03368e-014
lhumerus 32.0481 33.5825 -6.33047
lradius 33.2366
lwrist 35.7819
lhand -19.5243 -16.2526
lfingers 7.12502
lthumb 6.79905 13.6182
rfemur -14.9101 1.7689 -5.42322
rtibia 32.4578
rfoot -0.244204 -28.186
rtoes -3.30711
lfemur -20.3758 2.50024 -33.7544
ltibia 21.232
lfoot -17.0119 6.39456
ltoes 21.0969
191
root -0.33952 17.2811 5.46313 -2.38537 -81.1001 17.9588
lowerback -7.73071 1.54584 6.73481
upperback -10.2209 1.39947 0.220194
thorax -6.27024 0.0465068 -3.47605
lowerneck -5.07329 16.6338 10.9514
upperneck 18.5336 21.0055 2.24823
head 7.47392 10.9536 0.898411
rclavicle 8.34896e-015 1.03368e-014
rhumerus 10.7054 -21.6715 11.2318
rradius 114.594
rwrist -57.6943
rhand -5.2425 -45.1443
rfingers 7.12502
rthumb 20.5604 -74.0755
lclavicle 8.34896e-015 1.03368e-014
lhumerus 32.1982 33.5299 -6.28163
lradius 33.2868
lwrist 35.8786
lhand -19.5174 -16.7826
lfingers 7.12502
lthumb 6.80574 13.088
rfemur -15.0563 2.22926 -5.52347
rtibia 32.8457
rfoot -0.797644 -27.7335
rtoes -2.23311
lfemur -20.4246 2.47649 -33.9054
ltibia 21.4253
lfoot -16.8714 6.82756
ltoes 18.9827
192
root -0.335979 17.2769 5.46436 -2.80991 -81.1568 18.2996
lowerback -7.67596 1.63173 6.71478
upperback -10.1949 1.52065 0.202589
thorax -6.25857 0.110178 -3.48109
lowerneck -4.84612 16.4835 10.7197
upperneck 18.3777 20.8671 2.1716
head 7.35993 10.8691 0.854083
rclavicle 4.57205e-015 1.59028e-015
rhumerus 10.5177 -21.5314 11.3124
rradius 114.523
rwrist -57.85
rhand -5.21279 -45.1401
rfingers 7.12502
rthumb 20.589 -74.0682
lclavicle 4.57205e-015 1.59028e-015
lhumerus 32.2891 33.3856 -6.14839
lradius 33.3196
lwrist 35.9984
lhand -19.6871 -17.1486
lfingers 7.12502
lthumb 6.64185 12.7272
rfemur -15.2158 2.48864 -5.57881
rtibia 33.2841
rfoot -1.57707 -27.0376
rtoes -0.466793
lfemur -20.4706 2.5684 -33.965
ltibia 21.6266
lfoot -16.9957 6.76332
ltoes 19.7791
193
root -0.333449 17.27 5.46288 -3.00449 -81.2038 18.4133
lowerback -7.66039 1.70004 6.67637
upperback -10.1733 1.61542 0.200274
thorax -6.233 0.162451 -3.45973
lowerneck -4.68338 16.3488 10.5267
upperneck 18.387 20.73 2.12725
head 7.31302 10.7901 0.831571
rclavicle -4.57205e-015 9.54166e-015
rhumerus 10.3168 -21.3539 11.3864
rradius 114.459
rwrist -57.7728
rhand -4.553 -44.4616
rfingers 7.12502
rthumb 21.2228 -73.3198
lclavicle -4.57205e-015 9.54166e-015
lhumerus 32.3551 33.2469 -6.03221
lradius 33.3698
lwrist 36.0241
lhand -19.8124 -17.2389
lfingers 7.12502
lthumb 6.52093 12.6407
rfemur -15.4045 2.61803 -5.55686
rtibia 33.7424
rfoot -1.14342 -26.524
rtoes -1.89416
lfemur -20.5145 2.73888 -33.9931
ltibia 21.8358
lfoot -17.2287 6.56576
ltoes 21.0058
